<?xml version="1.0" encoding="UTF-8"?>
<svg id="Layer_1" data-name="Layer 1" xmlns="http://www.w3.org/2000/svg" viewBox="0 0 219 167">
  <defs>
    <style>
      .cls-1 {
        fill: #f5831f;
      }

      .cls-2 {
        fill: #646569;
      }
    </style>
  </defs>
  <path class="cls-2" d="M54.59,103.8c0-1.03-.77-1.55-1.8-1.55-.9,0-1.55.26-2.19.64v-1.29c.51-.38,1.4-.63,2.42-.63,1.79,0,2.93,1.01,2.93,2.66v5.18h-1.27v-.6c-.23.25-1.11.76-2,.76-1.52,0-2.91-.88-2.91-2.4,0-1.39,1.27-2.4,2.91-2.4.76,0,1.9.63,1.9.63v-1ZM54.59,106.19c-.25-.63-1.01-1.01-1.77-1.01-.89,0-1.77.38-1.77,1.39,0,.88.89,1.39,1.77,1.39.76,0,1.52-.38,1.77-1.01v-.76ZM70.85,98.2v10.61h-1.36v-4.77h-5.94v4.77h-1.36v-10.61h1.36v4.58h5.94v-4.58h1.36ZM74.05,105.18c0,1.77,1.14,2.65,2.53,2.65.89,0,1.52-.25,2.16-.76v1.14c-.64.51-1.4.63-2.29.63-2.15,0-3.67-1.52-3.67-3.92s1.39-4.05,3.41-4.05,3.16,1.52,3.12,3.8v.54h-5.27v-.04ZM74.05,104.15h3.92c0-1.14-.63-2.15-1.9-2.15-.89.13-1.77.76-2.02,2.15ZM87.34,107.07l1.66-5.84h1.23l-2.27,7.69h-1.27l-1.64-5.8-1.63,5.8h-1.27l-2.27-7.69h1.23l1.66,5.84,1.52-5.84h1.14l1.9,5.84h0ZM93.05,108.92h-1.27v-11.3h1.27v11.3ZM96.05,105.18c0,1.77,1.14,2.65,2.53,2.65.89,0,1.52-.25,2.17-.76v1.14c-.65.51-1.41.63-2.3.63-2.15,0-3.67-1.52-3.67-3.92s1.39-4.05,3.41-4.05,3.16,1.52,3.13,3.8v.54h-5.29v-.04ZM96.05,104.15h3.92c0-1.14-.63-2.15-1.9-2.15-.89.13-1.77.76-2.02,2.15ZM105.03,108.92h-1.27v-6.62h-1.66v-1.17h1.66v-2.05h1.27v2.05h1.75v1.17h-1.75v6.62ZM110.88,108.92h-1.27v-6.62h-1.66v-1.17h1.66v-2.05h1.27v2.05h1.75v1.17h-1.75v6.62ZM119.54,104.53v4.28h-1.36v-10.61h3.84c2.11,0,3.47,1.14,3.47,3.16s-1.36,3.16-3.47,3.16h-2.48ZM122.06,99.37h-2.51v3.9h2.51c1.38,0,2.14-.75,2.14-2.01.12-1.01-.63-1.88-2.14-1.88ZM131.33,103.8c0-1.03-.77-1.55-1.8-1.55-.9,0-1.55.26-2.19.64v-1.29c.51-.38,1.4-.63,2.42-.63,1.79,0,2.93,1.01,2.93,2.66v5.18h-1.27v-.6c-.23.25-1.12.76-2,.76-1.52,0-2.91-.89-2.91-2.4,0-1.39,1.27-2.4,2.91-2.4.76,0,1.9.63,1.9.63v-1h0ZM131.33,106.19c-.25-.63-1.01-1.01-1.77-1.01-.89,0-1.77.38-1.77,1.39,0,.89.89,1.39,1.77,1.39.76,0,1.52-.38,1.77-1.01v-.76h0ZM137.87,101.01c.76,0,1.52.13,2.02.63v1.27c-.51-.51-1.27-.76-2.02-.76-1.39,0-2.53,1.01-2.53,2.78s1.14,2.78,2.53,2.78c.76,0,1.39-.25,2.02-.76v1.27c-.51.51-1.27.63-2.02.63-2.02,0-3.67-1.52-3.67-4.05,0-2.28,1.64-3.8,3.67-3.8h0ZM148.15,108.92h-1.69l-3.54-3.81v3.81h-1.27v-11.3h1.27v6.83l3.45-3.32h1.66l-3.83,3.58,3.96,4.21ZM153.63,103.8c0-1.03-.77-1.55-1.8-1.55-.9,0-1.55.26-2.19.64v-1.29c.51-.38,1.4-.63,2.42-.63,1.79,0,2.93,1.01,2.93,2.66v5.18h-1.27v-.6c-.28.25-1.17.76-2.05.76-1.52,0-2.91-.89-2.91-2.4,0-1.39,1.27-2.4,2.91-2.4.76,0,1.95.63,1.95.63v-1h0ZM153.53,106.19c-.25-.63-1.01-1.01-1.77-1.01-.89,0-1.77.38-1.77,1.39,0,.89.89,1.39,1.77,1.39.76,0,1.52-.38,1.77-1.01v-.76ZM160.74,102.42c-.25-.13-.5-.25-.88-.25-.75,0-1.5.51-1.75,1.39v5.16h-1.27v-7.69h1.27v1.01c.37-.63,1-1.14,1.88-1.14.38,0,.63,0,.75.13v1.39ZM167.36,107.96c-.38.51-1.27,1.01-2.15,1.01-2.28,0-3.42-1.78-3.42-4.06,0-2.16,1.27-4.06,3.42-4.06.84-.01,1.63.36,2.15,1.02v-4.44h1.27v11.3h-1.27v-.76h0ZM167.36,103.41c-.38-.77-1.16-1.27-2.02-1.27-1.52,0-2.28,1.14-2.28,2.78s.89,2.78,2.28,2.78c.76,0,1.52-.51,2.02-1.27v-3.03h0ZM52.06,115.56v1.25h-5.45v3.41h4.97v1.27h-4.97v3.7h5.45v1.27h-6.72v-10.63l6.72-.25ZM53.71,118.46h1.27v1.01c.51-.63,1.27-1.13,2.29-1.13,1.78,0,2.67,1.13,2.67,2.77v5.04h-1.36v-4.8c0-1.01-.5-1.77-1.63-1.77-.88,0-1.63.63-1.88,1.39v5.18h-1.27v-7.79h-.1v.1ZM64.23,126.06h-1.27v-6.62h-1.66v-1.07h1.66v-2.05h1.27v2.05h1.75v1.07h-1.75v6.62ZM67.98,122.5c0,1.77,1.14,2.65,2.53,2.65.89,0,1.52-.25,2.19-.76v1.14c-.67.51-1.43.63-2.32.63-2.15,0-3.67-1.52-3.67-3.92s1.39-4.05,3.41-4.05,3.16,1.52,3.15,3.79v.46h-5.31v.05ZM68.11,121.48h3.92c0-1.14-.63-2.15-1.9-2.15-1.01,0-1.77.76-2.02,2.15ZM78.93,119.75c-.25-.13-.5-.25-.88-.25-.75,0-1.5.51-1.75,1.39v5.16h-1.27v-7.69h1.27v1.01c.37-.63,1-1.14,1.88-1.14.38,0,.63,0,.75.13v1.39ZM81.66,129.08h-1.27v-10.61h1.27v.88c.38-.51,1.27-1.01,2.15-1.01,2.28,0,3.42,1.9,3.42,4.04s-1.14,4.04-3.42,4.04c-1.01,0-1.77-.51-2.15-1.01v3.66ZM81.66,123.77c.38.77,1.16,1.27,2.02,1.27,1.52,0,2.28-1.14,2.28-2.78s-.89-2.78-2.28-2.78c-.76,0-1.52.51-2.02,1.27v3.03h0ZM92.86,119.75c-.25-.13-.5-.25-.88-.25-.75,0-1.5.51-1.75,1.39v5.16h-1.27v-7.69h1.27v1.01c.37-.63,1-1.14,1.88-1.14.38,0,.63,0,.75.13v1.39ZM95.04,116.94c-.49,0-.89-.4-.89-.89s.4-.89.89-.89.89.4.89.89c-.13.51-.51.89-.89.89ZM95.68,126.06h-1.27v-7.69h1.27v7.69ZM97.44,124.15c.76.63,1.65,1.01,2.53,1.01s1.65-.25,1.65-1.01c0-.63-.38-.89-1.14-1.14l-1.01-.38c-1.14-.38-1.9-.89-1.9-2.15,0-1.39,1.14-2.15,2.66-2.15.8,0,1.59.22,2.28.63v1.39c-.63-.51-1.39-.89-2.28-.89-.76,0-1.39.38-1.39,1.01s.38.89,1.14,1.14l1.14.38c1.14.38,1.77,1.01,1.77,2.15,0,1.39-1.27,2.28-2.91,2.28-1.01,0-1.9-.25-2.53-.76v-1.52ZM105.4,122.5c0,1.77,1.14,2.65,2.53,2.65.89,0,1.52-.25,2.16-.76v1.14c-.65.51-1.41.63-2.29.63-2.15,0-3.67-1.52-3.67-3.92s1.39-4.05,3.41-4.05,3.16,1.52,3.13,3.79v.46h-5.28v.05ZM105.4,121.48h3.92c0-1.14-.63-2.15-1.9-2.15-.89,0-1.77.76-2.02,2.15ZM119.57,118.33c.76,0,1.52.13,2.02.63v1.27c-.51-.51-1.27-.76-2.02-.76-1.39,0-2.53,1.01-2.53,2.78s1.14,2.78,2.53,2.78c.76,0,1.39-.25,2.02-.76v1.27c-.51.51-1.27.63-2.02.63-2.02,0-3.67-1.52-3.67-4.05,0-2.28,1.64-3.8,3.67-3.8h0ZM126.26,126.29c-2.15,0-3.54-1.64-3.54-4.05s1.39-4.05,3.54-4.05,3.54,1.64,3.54,4.05-1.52,4.05-3.54,4.05ZM126.26,119.47c-1.39,0-2.15,1.14-2.15,2.91,0,1.64.89,2.91,2.15,2.91,1.39,0,2.15-1.14,2.15-2.91s-.76-2.91-2.15-2.91ZM139.25,118.33c1.51,0,2.39,1.13,2.39,2.77v5.04h-1.27v-4.92c.04-1.01-.47-1.77-1.35-1.77-.76,0-1.39.51-1.67,1.39v5.39h-1.27v-4.93c0-1.01-.5-1.77-1.38-1.77-.75,0-1.38.51-1.64,1.39v5.21h-1.27v-7.69h1.27v.88c.38-.63,1.13-1.01,2.02-1.01,1.01,0,1.76.5,2.02,1.26.25-.76,1.01-1.26,2.14-1.26h0ZM145.06,129.08h-1.27v-10.61h1.27v.88c.38-.51,1.27-1.01,2.15-1.01,2.28,0,3.42,1.9,3.42,4.04s-1.14,4.04-3.42,4.04c-1.01,0-1.77-.51-2.15-1.01v3.66ZM145.06,123.77c.38.77,1.16,1.27,2.02,1.27,1.52,0,2.28-1.14,2.28-2.78s-.89-2.78-2.28-2.78c-.76,0-1.52.51-2.02,1.27v3.03h0ZM156.74,121c0-1.03-.77-1.55-1.8-1.55-.9,0-1.55.26-2.19.64v-1.25c.51-.38,1.4-.63,2.42-.63,1.79,0,2.93,1.01,2.93,2.66v5.18h-1.27v-.65c-.24.25-1.12.76-2.01.76-1.52,0-2.91-.88-2.91-2.4,0-1.39,1.27-2.4,2.91-2.4.76,0,1.91.63,1.91.63v-1h0ZM156.74,123.39c-.25-.63-1.01-1.01-1.77-1.01-.89,0-1.77.38-1.77,1.39,0,.88.89,1.39,1.77,1.39.76,0,1.52-.38,1.77-1.01v-.76ZM160.15,118.46h1.27v1.01c.51-.63,1.27-1.13,2.29-1.13,1.78,0,2.67,1.13,2.67,2.77v5.04h-1.36v-4.8c0-1.01-.5-1.77-1.63-1.77-.88,0-1.63.63-1.88,1.39v5.18h-1.27v-7.79h-.1v.1ZM169.25,129.08l1.14-2.91-3.03-7.71h1.39l2.27,6.07,2.27-6.07h1.39l-4.17,10.61h-1.26Z"/>
  <path class="cls-1" d="M122.07,66.94c0,10.14-8.08,18.38-17.92,18.38s-17.92-8.24-17.92-18.38v-15.6s8.57,2.14,8.57,11.22v4.34c0,5.56,4.17,9.99,9.35,9.99s9.35-4.43,9.35-9.99v-8.85c.38-7.59,6.82-9.99,8.46-10.87h.11v19.77ZM75.93,48.67c2.4,0,4.67.38,6.7,1.27v9.61c-1.77-1.52-4.17-2.4-6.7-2.4-5.69,0-10.24,4.43-10.24,9.99v18.12h-8.57v-33.17s3.54.13,5.82,1.77c3.29-3.29,7.96-5.18,13.02-5.18M34.73,76.99c-5.69,0-10.37-4.55-10.37-10.11s4.67-10.11,10.37-10.11,10.37,4.55,10.37,10.11-4.67,10.11-10.37,10.11M34.71,48.67c-10.37,0-18.71,8.22-18.71,18.2s8.34,18.2,18.71,18.2c4.3,0,8.22-1.39,11.38-3.8,1.9,3.16,7.33,3.8,7.33,3.8v-18.2c0-9.99-8.34-18.2-18.71-18.2M184.29,76.99c-5.69,0-10.37-4.55-10.37-10.11s4.67-10.11,10.37-10.11,10.37,4.55,10.37,10.11-4.67,10.11-10.37,10.11M184.29,48.67c-10.37,0-18.71,8.22-18.71,18.2s8.34,18.2,18.71,18.2c4.3,0,8.22-1.39,11.38-3.8,1.9,3.16,7.33,3.8,7.33,3.8v-18.2c0-9.99-8.34-18.2-18.71-18.2M144.59,76.99c-5.69,0-10.37-4.55-10.37-10.11s4.67-10.11,10.37-10.11,10.37,4.55,10.37,10.11c.13,5.56-4.55,10.11-10.37,10.11M144.65,48.67c-3.81,0-7.36,1.14-10.41,3.03v-2.91c-.38-7.59-6.6-9.99-8.25-10.87h-.13v47.28s5.58-.63,7.74-3.67c3.17,2.15,6.98,3.54,11.04,3.54,10.41,0,18.78-8.22,18.78-18.2.13-9.99-8.37-18.2-18.78-18.2"/>
</svg>