<?xml version="1.0" encoding="UTF-8"?>
<svg id="Layer_1" data-name="Layer 1" xmlns="http://www.w3.org/2000/svg" xmlns:xlink="http://www.w3.org/1999/xlink" viewBox="0 0 256 256">
  <defs>
    <style>
      .cls-1 {
        fill: url(#linear-gradient-2);
      }

      .cls-2 {
        fill: #fff;
      }

      .cls-3 {
        fill: url(#linear-gradient);
      }
    </style>
    <linearGradient id="linear-gradient" x1="97.61" y1="232.98" x2="97.61" y2="64.56" gradientUnits="userSpaceOnUse">
      <stop offset="0" stop-color="#666769"/>
      <stop offset="1" stop-color="#b7b8ba"/>
    </linearGradient>
    <linearGradient id="linear-gradient-2" x1="84.09" y1="44.78" x2="222.82" y2="44.78" gradientUnits="userSpaceOnUse">
      <stop offset="0" stop-color="#a2a3a5"/>
      <stop offset="1" stop-color="#77777a"/>
    </linearGradient>
  </defs>
  <g>
    <path class="cls-2" d="M66.87,40.74c3.27,1.84,7.47,1.52,10.37-.77,3.06-2.41,4.31-5.83,3.57-9.69-.6-3.15-3.13-6.1-6.66-7.26h-5.65s-3.05,1.8-3.05,1.8c-2.56,2.01-3.76,5.13-3.52,8.21.24,3.08,1.92,6.01,4.94,7.71Z"/>
    <path class="cls-2" d="M239.31,94.76l-46.21-46.27h-23.76c1.17,1.55,2.23,2.75,3.77,4.04l47.27,47.33,5.74,5.74c7.69,7.69,12.52,16.38,7.83,26.67-2.2,4.82-5.77,8.3-9.57,12.11l-55.7,55.84c-3.1,3.11-6.89,5.93-9.09,9.75-5.31,9.25-11.3,17.38-20.97,22.7,13.22,1.2,23.72-1.73,32.58-10.64l18.14-18.27,54.58-54.71c13.71-16.49,11.65-40.16-4.62-54.29Z"/>
    <path class="cls-2" d="M119.36,198.72c-1.4-3.87-2.13-7.66-2.14-11.89l-.14-98.1c0-5.74-1.81-11.13-5.17-15.6-4.66-6.22-13.51-8.51-21.61-8.53l-27.8-.06c-3.12,0-6.01-.99-8.42-2.66-2.48-2.49-3.38-5.68-3.43-9.08-.08-5.25,3.05-9.65,8.7-11.13-4.28-5.5-4.54-12.06-.42-17.48-3.9.61-7.08,1.68-10.42,3.14-6.03,3.06-10.65,7.93-12.98,14.16-4.77,12.76-1.78,28.03,10.38,35.65,5.45,3.41,11.54,4.77,18.07,4.77l27.46.02c2.25,0,4.55.14,6.32,1.46,1.49,1.11,2.19,3.13,2.19,5.13l.11,96.55c0,6.34.64,12.25,2.49,18.11.69,2.19,1.9,3.6,4.12,4.45,8.59,3.29,17.35-1.03,16.27-2.62-1.38-2.03-2.75-3.98-3.59-6.29Z"/>
  </g>
  <g>
    <path class="cls-3" d="M181.17,70.26c-2.38-2.69-5.21-4.45-8.9-5.19-12.69-2-26.6,1.73-31.14,13.91-1.34,3.6-2.07,7.21-2.07,11.22l.02,95.96c0,13.03-5.56,24.41-18.74,28.6-7.58,2.41-15.47.83-21.56-3.97-2.87-2.27-5.06-4.84-7.65-7.43l-21.46-21.45-10.55-10.41-6.65-6.6-10.52-10.41-14.31-14.34c-4.69-4.69-7.78-10.77-7.22-17.41.54-6.3,4.08-11.66,8.59-16.12l20.22-19.99c-4.45-1.87-7.94-4.07-11.25-6.9-1.1-.94-2.01-1.85-3.5-2.67l-20.74,20.72c-5.85,5.85-9.02,13.26-10.16,21.19-.1.67-.15,1.27-.58,1.61v6.81c.26.21.57.77.61,1.25.66,9.74,5.57,18.02,12.81,24.7l12.02,11.92,58.61,58.03c4.15,4.11,9.52,6.8,15.09,8.29,21.89,5.84,45.48-7.17,51.57-28.03,1.36-4.65,2.46-9.16,2.46-14.18l.05-100.28c0-1.69.21-3.19,1.05-4.47,1.25-1.91,3.68-2.77,6.11-2.79l28.84-.21c-4.06-3.89-7.58-7.44-11.05-11.36Z"/>
    <path class="cls-1" d="M222.55,48.79c-.9-7.99-4.83-15.39-11.79-19.98-4.73-3.12-10.02-4.28-15.87-4.72h-110.81c4.45,5.21,4.21,11.74.3,17.24h109.37c6.12.43,9.18,2.03,11.11,7.43.58,2.3,2.08,3.79,3.83,5.51l11.46,11.21c2.6-5.36,3.04-10.95,2.4-16.69Z"/>
  </g>
</svg>